<svg xmlns="http://www.w3.org/2000/svg">
    <symbol id="arrow-right" viewBox="0 0 6 11">
        <path d="M1 1L5 5.5L1 10" stroke-width="2" stroke-linecap="round" stroke-linejoin="round"/>
    </symbol>
    <symbol id="icon-twitter" viewBox="0 0 25 20">
        <path d="M24.999 2.3741C24.0253 2.78177 23.0273 3.04556 22.0536 3.16547C23.1733 2.51799 23.9036 1.58273 24.3174 0.383693C23.295 0.959233 22.1996 1.36691 21.0555 1.58273C20.0331 0.527578 18.7916 0 17.3067 0C15.8948 0 14.6777 0.503597 13.6797 1.48681C12.6816 2.47002 12.1704 3.66906 12.1704 5.05995C12.1704 5.44365 12.2191 5.82734 12.2921 6.21103C10.1986 6.11511 8.22688 5.58753 6.40117 4.65228C4.57546 3.71703 3.01753 2.47002 1.72736 0.935252C1.26485 1.72662 1.02142 2.56595 1.02142 3.47722C1.02142 4.34053 1.21617 5.15588 1.62999 5.8753C2.04382 6.6187 2.6037 7.21823 3.2853 7.67386C2.45765 7.64988 1.67868 7.43405 0.972738 7.02638V7.09832C0.972738 8.32134 1.36222 9.3765 2.14119 10.3118C2.92016 11.223 3.89387 11.8225 5.08666 12.0623C4.64849 12.1823 4.18598 12.2302 3.74781 12.2302C3.4557 12.2302 3.13924 12.2062 2.7741 12.1583C3.09056 13.1655 3.69913 14.0048 4.57546 14.6523C5.4518 15.2998 6.44986 15.6355 7.56962 15.6595C5.71957 17.0983 3.57741 17.8177 1.21617 17.8177C0.753654 17.8177 0.339827 17.7938 -0.0253143 17.7458C2.36028 19.2566 4.98929 20 7.83739 20C9.6631 20 11.3671 19.7122 12.9737 19.1607C14.5803 18.5851 15.9435 17.8417 17.0633 16.8825C18.1831 15.9233 19.1811 14.8201 19.9844 13.5971C20.8121 12.3501 21.4206 11.0552 21.8101 9.71223C22.1996 8.3693 22.4187 7.0024 22.4187 5.65947C22.4187 5.3717 22.4187 5.15588 22.3944 5.01199C23.4411 4.26858 24.2931 3.40528 24.999 2.3741Z" />
    </symbol>
    <symbol id="icon-facebook" viewBox="0 0 10 22">
        <path d="M6.64671 7.21043V5.3054C6.64671 5.01862 6.66667 4.7933 6.68663 4.64991C6.70659 4.48603 6.76647 4.34264 6.86627 4.19925C6.96607 4.05587 7.10579 3.95344 7.30539 3.89199C7.50499 3.83054 7.78443 3.81006 8.12375 3.81006H9.98004V0H7.00599C5.28942 0 4.07186 0.409683 3.33333 1.24953C2.59481 2.08939 2.21557 3.29795 2.21557 4.93669V7.21043H0V11H2.21557V22H6.64671V11H9.6008L10 7.21043H6.64671Z"/>
    </symbol>
    <symbol id="icon-instagram" viewBox="0 0 22 22">
        <path d="M15.9305 0H6.06953C2.71746 0 0 2.71746 0 6.06953V15.9305C0 19.2825 2.71746 22 6.06953 22H15.9305C19.2825 22 22 19.2825 22 15.9305V6.06953C22 2.71746 19.2825 0 15.9305 0ZM20.0473 15.9305C20.0473 18.2086 18.1923 20.0473 15.9305 20.0473H6.06953C3.79142 20.0473 1.95266 18.1923 1.95266 15.9305V6.06953C1.95266 3.80769 3.80769 1.95266 6.06953 1.95266H15.9305C18.2086 1.95266 20.0473 3.80769 20.0473 6.06953V15.9305Z"/>
        <path d="M11 5.33716C7.87573 5.33716 5.321 7.87562 5.321 10.9999C5.321 14.1241 7.85946 16.6789 11 16.6789C14.1243 16.6789 16.679 14.1404 16.679 10.9999C16.679 7.87562 14.1243 5.33716 11 5.33716ZM11 14.7262C8.94969 14.7262 7.27366 13.0664 7.27366 11.0162C7.28993 8.94958 8.94969 7.28982 11 7.28982C13.0503 7.28982 14.7263 8.94958 14.7263 10.9999C14.7263 13.0502 13.0503 14.7262 11 14.7262Z"/>
        <path d="M16.9068 3.67749C16.5325 3.67749 16.1583 3.82394 15.8979 4.10057C15.6376 4.36092 15.4748 4.73518 15.4748 5.10944C15.4748 5.4837 15.6213 5.85796 15.8979 6.11832C16.1583 6.37867 16.5325 6.5414 16.9068 6.5414C17.2811 6.5414 17.6553 6.39495 17.9157 6.11832C18.176 5.85796 18.3388 5.4837 18.3388 5.10944C18.3388 4.73518 18.1923 4.36092 17.9157 4.10057C17.6553 3.82394 17.2973 3.67749 16.9068 3.67749Z"/>
    </symbol>
    <symbol id="icon-linkedin" viewBox="0 0 23 22">
        <path d="M5.21578 7.14941H0.275716V22H5.21578V7.14941Z"/>
        <path d="M21.4376 8.50559C20.4036 7.37916 19.025 6.80444 17.3247 6.80444C16.7043 6.80444 16.1299 6.87341 15.6014 7.03433C15.0959 7.19525 14.6593 7.40214 14.2917 7.67801C13.947 7.95387 13.6483 8.20674 13.4416 8.45962C13.2348 8.6895 13.0509 8.94237 12.8671 9.24123V7.12628H7.95004L7.97302 7.83893C7.97302 8.32168 7.996 9.79295 7.996 12.2757C7.996 14.7585 7.996 17.9769 7.97302 21.9769H12.8901V13.701C12.8901 13.1952 12.9361 12.7815 13.0509 12.4826C13.2577 11.9769 13.5794 11.5401 13.993 11.1952C14.4066 10.8504 14.9351 10.6895 15.5784 10.6895C16.4286 10.6895 17.0719 10.9884 17.4625 11.5861C17.8761 12.1838 18.0599 13.0113 18.0599 14.0458V21.9769H22.977V13.4711C23 11.2872 22.4945 9.63203 21.4376 8.50559Z"/>
        <path d="M2.78022 0C1.95305 0 1.28671 0.252874 0.781219 0.735632C0.252747 1.21839 0 1.81609 0 2.55172C0 3.28736 0.252747 3.88506 0.758242 4.39081C1.26374 4.87356 1.90709 5.12644 2.73427 5.12644H2.75724C3.60739 5.12644 4.27373 4.87356 4.77922 4.39081C5.28472 3.90805 5.53746 3.28736 5.53746 2.55172C5.53746 1.81609 5.26174 1.1954 4.77922 0.712644C4.27373 0.252874 3.60739 0 2.78022 0Z"/>
    </symbol>
    <symbol id="icon-youtube" viewBox="0 0 29 20">
        <path d="M27.9856 7.64988C27.9856 7.09832 27.9376 6.3789 27.8417 5.51559C27.7698 4.65228 27.6499 3.88489 27.506 3.21343C27.3381 2.44604 26.9784 1.82254 26.4269 1.29496C25.8753 0.767386 25.2278 0.479616 24.4844 0.383693C22.1823 0.119904 18.6811 0 14.0048 0C9.32854 0 5.82734 0.119904 3.52518 0.383693C2.78177 0.479616 2.13429 0.767386 1.58273 1.29496C1.03118 1.82254 0.671463 2.44604 0.503597 3.21343C0.335731 3.88489 0.239808 4.65228 0.143885 5.51559C0.0719424 6.3789 0.0239808 7.09832 0 7.64988C0 8.22542 0 8.99281 0 10C0 11.0072 0 11.7746 0.0239808 12.3501C0.0239808 12.9017 0.0719424 13.6211 0.167866 14.4844C0.215827 15.3477 0.335731 16.1151 0.479616 16.7866C0.647482 17.554 1.00719 18.1775 1.55875 18.705C2.11031 19.2326 2.75779 19.5204 3.5012 19.6163C5.80336 19.8801 9.30456 20 13.9808 20C18.6571 20 22.1583 19.8801 24.4604 19.6163C25.2038 19.5444 25.8513 19.2326 26.4029 18.705C26.9544 18.1775 27.3141 17.554 27.482 16.7866C27.6499 16.1151 27.7458 15.3477 27.8417 14.4844C27.9137 13.6211 27.9616 12.9017 27.9856 12.3501C27.9856 11.7986 28.0096 11.0072 28.0096 10C28.0096 8.99281 28.0096 8.22542 27.9856 7.64988ZM19.5444 10.8393L11.5348 15.8513C11.3909 15.9472 11.223 16.0192 11.0072 16.0192C10.8393 16.0192 10.6954 15.9712 10.5276 15.8993C10.1918 15.7074 10 15.4197 10 15.012V5.01199C10 4.60432 10.1679 4.31655 10.5276 4.1247C10.8873 3.93285 11.223 3.95683 11.5348 4.14868L15.5396 6.65468L19.5444 9.16067C19.8561 9.32854 20.024 9.61631 20.024 10C20 10.3837 19.8561 10.6715 19.5444 10.8393Z"/>
    </symbol>
    <symbol id="icon-slider-arrow" viewBox="0 0 128 128">
        <path d="M64,0a64,64,0,1,0,64,64A64.07,64.07,0,0,0,64,0Zm0,122a58,58,0,1,1,58-58A58.07,58.07,0,0,1,64,122Z"/><path d="M58.12,35.88a3,3,0,0,0-4.24,4.24L77.76,64,53.88,87.88a3,3,0,1,0,4.24,4.24l26-26a3,3,0,0,0,0-4.24Z"/>
    </symbol>
    <symbol id="icon-star" viewBox="0 0 26 24">
        <path d="M12.5854 20.0488L18.5854 23.7073C19.7561 24.439 21.0732 23.4146 20.7805 22.0976L19.1708 15.2195L24.5854 10.5366C25.6098 9.65854 25.0244 8.04878 23.7073 7.90244L16.683 7.31707L13.9025 0.878049C13.3171 -0.292683 11.7073 -0.292683 11.122 0.878049L8.34149 7.46341L1.3171 8.04878C2.73546e-05 8.04878 -0.438997 9.65854 0.439052 10.5366L5.85369 15.2195L4.24393 22.0976C3.95125 23.4146 5.26832 24.2927 6.43905 23.7073L12.5854 20.0488Z"/>
    </symbol>
    <symbol id="icon-logo" viewBox="0 0 512 512">
        <path d="M40,68.5c-15.7,0-28.5-12.8-28.5-28.5S24.3,11.5,40,11.5S68.5,24.3,68.5,40S55.7,68.5,40,68.5z M40,13.5   c-14.6,0-26.5,11.9-26.5,26.5S25.4,66.5,40,66.5S66.5,54.6,66.5,40S54.6,13.5,40,13.5z" fill="#fb8f1d" transform="matrix(8.5, 0, 0, 8.5, -85, -85)"/>
	<path fill="#1abe84" d="M95.13,75.32L70.54,38.07c-0.08-0.11-0.16-0.21-0.26-0.31c-0.08-0.09-0.17-0.16-0.27-0.23  c-0.01-0.01-0.03-0.02-0.04-0.03c-0.02-0.01-0.04-0.03-0.06-0.03c-0.06-0.04-0.13-0.08-0.19-0.11c-0.06-0.03-0.12-0.05-0.18-0.07  s-0.13-0.04-0.2-0.06c-0.07-0.02-0.14-0.03-0.2-0.04c-0.04-0.01-0.08-0.01-0.12-0.01c-0.02-0.01-0.04-0.01-0.06-0.01h-0.13  c-0.08,0-0.15,0.01-0.23,0.02c-0.07,0.01-0.14,0.02-0.2,0.04c-0.07,0.02-0.13,0.04-0.19,0.06H68.2c-0.07,0.02-0.13,0.05-0.18,0.07  c-0.06,0.03-0.12,0.06-0.18,0.11c-0.06,0.03-0.12,0.07-0.18,0.12c-0.05,0.03-0.09,0.06-0.13,0.1c-0.04,0.03-0.07,0.07-0.11,0.12  c-0.03,0.03-0.06,0.05-0.08,0.08c-0.04,0.04-0.07,0.09-0.11,0.14c-0.01,0.01-0.02,0.03-0.03,0.04l-8.68,13.14l-6.79-10.28  c-0.05-0.08-0.1-0.16-0.16-0.24L41.42,25.32l-0.1-0.16c-0.05-0.07-0.1-0.14-0.16-0.21c-0.05-0.06-0.11-0.12-0.18-0.18  c-0.06-0.05-0.12-0.1-0.19-0.15c-0.03-0.02-0.06-0.04-0.1-0.06c-0.06-0.04-0.13-0.08-0.19-0.11c-0.05-0.02-0.11-0.05-0.18-0.07  c-0.06-0.02-0.13-0.04-0.2-0.06c-0.06-0.02-0.13-0.03-0.2-0.04c-0.08-0.01-0.15-0.02-0.23-0.02h-0.08c-0.08,0-0.15,0.01-0.23,0.02  c-0.06,0.01-0.13,0.02-0.2,0.04c-0.07,0.02-0.14,0.04-0.2,0.06c-0.06,0.02-0.12,0.04-0.18,0.07c-0.06,0.03-0.12,0.06-0.18,0.11  c-0.02,0-0.05,0.02-0.07,0.03c-0.23,0.15-0.42,0.35-0.57,0.57l-14.72,22.3L4.86,75.32c-0.61,0.92-0.35,2.16,0.57,2.77  c0.34,0.23,0.72,0.33,1.1,0.33c0.65,0,1.29-0.31,1.67-0.9l17.34-26.26l4.87,2.6c0.3,0.16,0.62,0.24,0.94,0.24  c0.62,0,1.22-0.29,1.61-0.81l4.19-5.67l5.67,3.72c0.87,0.57,2.03,0.38,2.67-0.44l4.37-5.55l7.02,10.63L71.1,77.52  c0.39,0.59,1.02,0.9,1.67,0.9c0.38,0,0.77-0.1,1.1-0.33c0.93-0.61,1.18-1.85,0.57-2.77L60.92,54.84l7.95-12.04L91.8,77.52  c0.38,0.59,1.02,0.9,1.67,0.9c0.37,0,0.76-0.1,1.1-0.33C95.49,77.48,95.74,76.24,95.13,75.32z M43.48,46.99l-5.72-3.75  c-0.88-0.58-2.07-0.37-2.7,0.49l-4.29,5.79l-3.02-1.61l11.9-18.02l7.89,11.94L43.48,46.99z" transform="matrix(4.288, 0, 0, 4.288, 40.723, 30.723)"/>
    </symbol>
    <symbol id="icon-menu" viewBox="0 0 448 512">
        <path d="M16 132h416c8.837 0 16-7.163 16-16V76c0-8.837-7.163-16-16-16H16C7.163 60 0 67.163 0 76v40c0 8.837 7.163 16 16 16zm0 160h416c8.837 0 16-7.163 16-16v-40c0-8.837-7.163-16-16-16H16c-8.837 0-16 7.163-16 16v40c0 8.837 7.163 16 16 16zm0 160h416c8.837 0 16-7.163 16-16v-40c0-8.837-7.163-16-16-16H16c-8.837 0-16 7.163-16 16v40c0 8.837 7.163 16 16 16z"></path>
    </symbol>
    <symbol id="icon-email" viewBox="0 0 512 512">
        <path d="M464 64C490.5 64 512 85.49 512 112C512 127.1 504.9 141.3 492.8 150.4L275.2 313.6C263.8 322.1 248.2 322.1 236.8 313.6L19.2 150.4C7.113 141.3 0 127.1 0 112C0 85.49 21.49 64 48 64H464zM217.6 339.2C240.4 356.3 271.6 356.3 294.4 339.2L512 176V384C512 419.3 483.3 448 448 448H64C28.65 448 0 419.3 0 384V176L217.6 339.2z"/>
    </symbol>
    <symbol id="icon-user" viewBox="0 0 448 512">
        <path d="M224 256c70.7 0 128-57.3 128-128S294.7 0 224 0S96 57.3 96 128s57.3 128 128 128zm-45.7 48C79.8 304 0 383.8 0 482.3C0 498.7 13.3 512 29.7 512H418.3c16.4 0 29.7-13.3 29.7-29.7C448 383.8 368.2 304 269.7 304H178.3z"/>
    </symbol>
    <symbol id="icon-lock" viewBox="0 0 448 512">
        <path d="M80 192V144C80 64.47 144.5 0 224 0C303.5 0 368 64.47 368 144V192H384C419.3 192 448 220.7 448 256V448C448 483.3 419.3 512 384 512H64C28.65 512 0 483.3 0 448V256C0 220.7 28.65 192 64 192H80zM144 192H304V144C304 99.82 268.2 64 224 64C179.8 64 144 99.82 144 144V192z"/>
    </symbol>
    <symbol id="icon-key" viewBox="0 0 512 512">
        <path d="M336 352c97.2 0 176-78.8 176-176S433.2 0 336 0S160 78.8 160 176c0 18.7 2.9 36.8 8.3 53.7L7 391c-4.5 4.5-7 10.6-7 17v80c0 13.3 10.7 24 24 24h80c13.3 0 24-10.7 24-24V448h40c13.3 0 24-10.7 24-24V384h40c6.4 0 12.5-2.5 17-7l33.3-33.3c16.9 5.4 35 8.3 53.7 8.3zm40-176c-22.1 0-40-17.9-40-40s17.9-40 40-40s40 17.9 40 40s-17.9 40-40 40z"/>
    </symbol>
    <symbol id="icon-phone" viewBox="0 0 512 512">
        <path d="M164.9 24.6c-7.7-18.6-28-28.5-47.4-23.2l-88 24C12.1 30.2 0 46 0 64C0 311.4 200.6 512 448 512c18 0 33.8-12.1 38.6-29.5l24-88c5.3-19.4-4.6-39.7-23.2-47.4l-96-40c-16.3-6.8-35.2-2.1-46.3 11.6L304.7 368C234.3 334.7 177.3 277.7 144 207.3L193.3 167c13.7-11.2 18.4-30 11.6-46.3l-40-96z"/>
    </symbol>
    <symbol id="icon-fire" viewBox="0 0 448 512">
         <path d="M159.3 5.4c7.8-7.3 19.9-7.2 27.7 .1c27.6 25.9 53.5 53.8 77.7 84c11-14.4 23.5-30.1 37-42.9c7.9-7.4 20.1-7.4 28 .1c34.6 33 63.9 76.6 84.5 118c20.3 40.8 33.8 82.5 33.8 111.9C448 404.2 348.2 512 224 512C98.4 512 0 404.1 0 276.5c0-38.4 17.8-85.3 45.4-131.7C73.3 97.7 112.7 48.6 159.3 5.4zM225.7 416c25.3 0 47.7-7 68.8-21c42.1-29.4 53.4-88.2 28.1-134.4c-2.8-5.6-5.6-11.2-9.8-16.8l-50.6 58.8s-81.4-103.6-87.1-110.6C133.1 243.8 112 273.2 112 306.8C112 375.4 162.6 416 225.7 416z"/>
    </symbol>
    <symbol id="icon-gem" viewBox="0 0 512 512">
        <path d="M507.9 196.4l-104-153.8C399.4 35.95 391.1 32 384 32H127.1C120 32 112.6 35.95 108.1 42.56l-103.1 153.8c-6.312 9.297-5.281 21.72 2.406 29.89l231.1 246.2C243.1 477.3 249.4 480 256 480s12.94-2.734 17.47-7.547l232-246.2C513.2 218.1 514.2 205.7 507.9 196.4zM382.5 96.59L446.1 192h-140.1L382.5 96.59zM256 178.9L177.6 80h156.7L256 178.9zM129.5 96.59L205.1 192H65.04L129.5 96.59zM256 421L85.42 240h341.2L256 421z"/>
    </symbol>
    <symbol id="icon-hiking" viewBox="0 0 384 512">
        <path d="M288 48c0 26.5-21.5 48-48 48s-48-21.5-48-48s21.5-48 48-48s48 21.5 48 48zM243.3 230.7L224.2 307l49.7 49.7c9 9 14.1 21.2 14.1 33.9V480c0 17.7-14.3 32-32 32s-32-14.3-32-32V397.3l-73.9-73.9c-15.8-15.8-22.2-38.6-16.9-60.3l20.4-84c8.3-34.1 42.7-54.9 76.7-46.4c19 4.8 35.6 16.4 46.4 32.7L305.1 208H336V184c0-13.3 10.7-24 24-24s24 10.7 24 24v55.8c0 .1 0 .2 0 .2s0 .2 0 .2V488c0 13.3-10.7 24-24 24s-24-10.7-24-24V272H296.6c-16 0-31-8-39.9-21.4l-13.3-20zM81.1 471.9L117.3 334c3 4.2 6.4 8.2 10.1 11.9l41.9 41.9L142.9 488.1c-4.5 17.1-22 27.3-39.1 22.8s-27.3-22-22.8-39.1zm55.5-346L101.4 266.5c-3 12.1-14.9 19.9-27.2 17.9l-47.9-8c-14-2.3-22.9-16.3-19.2-30L31.9 155c9.5-34.8 41.1-59 77.2-59h4.2c15.6 0 27.1 14.7 23.3 29.8z"/>
    </symbol>
    <symbol id="icon-mauntain" viewBox="0 0 512 512">
        <path d="M256 32c12.5 0 24.1 6.4 30.7 17L503.4 394.4c5.6 8.9 8.6 19.2 8.6 29.7c0 30.9-25 55.9-55.9 55.9H55.9C25 480 0 455 0 424.1c0-10.5 3-20.8 8.6-29.7L225.2 49c6.6-10.6 18.3-17 30.8-17zm65 192L256 120.4 176.9 246.5 208 288l48-64h65z"/>
    </symbol>
    <symbol id="icon-campground" viewBox="0 0 576 512">
        <path d="M377 52c11-13.8 8.8-33.9-5-45s-33.9-8.8-45 5L288 60.8 249 12c-11-13.8-31.2-16-45-5s-16 31.2-5 45l48 60L12.3 405.4C4.3 415.4 0 427.7 0 440.4V464c0 26.5 21.5 48 48 48H288 528c26.5 0 48-21.5 48-48V440.4c0-12.7-4.3-25.1-12.3-35L329 112l48-60zM288 448H168.5L288 291.7 407.5 448H288z"/>
    </symbol>
    <symbol id="icon-food" viewBox="0 0 512 512">
        <path d="M0 192c0-35.3 28.7-64 64-64c.5 0 1.1 0 1.6 0C73 91.5 105.3 64 144 64c15 0 29 4.1 40.9 11.2C198.2 49.6 225.1 32 256 32s57.8 17.6 71.1 43.2C339 68.1 353 64 368 64c38.7 0 71 27.5 78.4 64c.5 0 1.1 0 1.6 0c35.3 0 64 28.7 64 64c0 11.7-3.1 22.6-8.6 32H8.6C3.1 214.6 0 203.7 0 192zm0 91.4C0 268.3 12.3 256 27.4 256H484.6c15.1 0 27.4 12.3 27.4 27.4c0 70.5-44.4 130.7-106.7 154.1L403.5 452c-2 16-15.6 28-31.8 28H140.2c-16.1 0-29.8-12-31.8-28l-1.8-14.4C44.4 414.1 0 353.9 0 283.4z"/>
    </symbol>
    <symbol id="icon-umbrella-beach" viewBox="0 0 576 512">
        <path d="M346.3 271.8l-60.1-21.9L214 448H32c-17.7 0-32 14.3-32 32s14.3 32 32 32H544c17.7 0 32-14.3 32-32s-14.3-32-32-32H282.1l64.1-176.2zm121.1-.2l-3.3 9.1 67.7 24.6c18.1 6.6 38-4.2 39.6-23.4c6.5-78.5-23.9-155.5-80.8-208.5c2 8 3.2 16.3 3.4 24.8l.2 6c1.8 57-7.3 113.8-26.8 167.4zM462 99.1c-1.1-34.4-22.5-64.8-54.4-77.4c-.9-.4-1.9-.7-2.8-1.1c-33-11.7-69.8-2.4-93.1 23.8l-4 4.5C272.4 88.3 245 134.2 226.8 184l-3.3 9.1L434 269.7l3.3-9.1c18.1-49.8 26.6-102.5 24.9-155.5l-.2-6zM107.2 112.9c-11.1 15.7-2.8 36.8 15.3 43.4l71 25.8 3.3-9.1c19.5-53.6 49.1-103 87.1-145.5l4-4.5c6.2-6.9 13.1-13 20.5-18.2c-79.6 2.5-154.7 42.2-201.2 108z"/>
    </symbol>
    <symbol id="icon-categories" viewBox="0 0 512 512">
        <path d="M315.4 15.5C309.7 5.9 299.2 0 288 0s-21.7 5.9-27.4 15.5l-96 160c-5.9 9.9-6.1 22.2-.4 32.2s16.3 16.2 27.8 16.2H384c11.5 0 22.2-6.2 27.8-16.2s5.5-22.3-.4-32.2l-96-160zM288 312V456c0 22.1 17.9 40 40 40H472c22.1 0 40-17.9 40-40V312c0-22.1-17.9-40-40-40H328c-22.1 0-40 17.9-40 40zM128 512c70.7 0 128-57.3 128-128s-57.3-128-128-128S0 313.3 0 384s57.3 128 128 128z"/>
    </symbol>
    <symbol id="icon-heart" viewBox="0 0 512 512"><path d="M244 84L255.1 96L267.1 84.02C300.6 51.37 347 36.51 392.6 44.1C461.5 55.58 512 115.2 512 185.1V190.9C512 232.4 494.8 272.1 464.4 300.4L283.7 469.1C276.2 476.1 266.3 480 256 480C245.7 480 235.8 476.1 228.3 469.1L47.59 300.4C17.23 272.1 0 232.4 0 190.9V185.1C0 115.2 50.52 55.58 119.4 44.1C164.1 36.51 211.4 51.37 244 84C243.1 84 244 84.01 244 84L244 84zM255.1 163.9L210.1 117.1C188.4 96.28 157.6 86.4 127.3 91.44C81.55 99.07 48 138.7 48 185.1V190.9C48 219.1 59.71 246.1 80.34 265.3L256 429.3L431.7 265.3C452.3 246.1 464 219.1 464 190.9V185.1C464 138.7 430.4 99.07 384.7 91.44C354.4 86.4 323.6 96.28 301.9 117.1L255.1 163.9z"/></symbol>
    <symbol id="icon-heart-filled" viewBox="0 0 512 512"><path d="M47.6 300.4L228.3 469.1c7.5 7 17.4 10.9 27.7 10.9s20.2-3.9 27.7-10.9L464.4 300.4c30.4-28.3 47.6-68 47.6-109.5v-5.8c0-69.9-50.5-129.5-119.4-141C347 36.5 300.6 51.4 268 84L256 96 244 84c-32.6-32.6-79-47.5-124.6-39.9C50.5 55.6 0 115.2 0 185.1v5.8c0 41.5 17.2 81.2 47.6 109.5z"/></symbol>
</svg>